<svg width="32" height="32" viewBox="0 0 32 32" fill="none" xmlns="http://www.w3.org/2000/svg">
<rect width="32" height="32" rx="5" fill="white"/>
<path d="M13.6145 3.21852C13.1775 3.21852 13.7019 4.96656 12.9153 5.44727C12.0413 5.75318 10.9924 4.26734 10.7302 4.61695C10.4243 4.96656 11.0361 5.31617 11.4295 5.70948C11.9539 6.19019 12.8279 7.02051 12.8279 7.02051C12.8279 7.02051 13.396 7.58862 13.8767 7.37012C14.3574 7.15161 14.2263 6.32129 14.2263 6.32129C14.2263 6.32129 14.0952 5.14136 14.0078 4.44215C13.9641 3.91773 14.0515 3.17482 13.6145 3.21852Z" fill="black"/>
<path d="M17.7661 3.26218C17.3728 3.08737 17.1106 4.87912 16.1929 5.01022C15.2751 4.92282 14.9692 3.13107 14.5759 3.34958C14.1826 3.52438 14.5759 4.1362 14.7507 4.61691C15.0129 5.27242 15.45 6.40865 15.45 6.40865C15.45 6.40865 15.7122 7.19527 16.2366 7.15157C16.761 7.15157 16.9795 6.36495 16.9795 6.36495C16.9795 6.36495 17.3728 5.22872 17.635 4.52951C17.8098 4.0488 18.2031 3.43698 17.7661 3.26218Z" fill="black"/>
<path d="M16.8484 3.65552C16.8484 4.04883 16.5425 4.57324 16.1929 4.61694C15.7996 4.61694 15.4937 4.04883 15.4937 3.69922C15.4937 3.30591 15.7996 3 16.1492 3C16.5425 3 16.8484 3.30591 16.8484 3.65552Z" fill="black"/>
<path d="M18.7712 3.21852C19.2082 3.21852 18.6838 4.96656 19.4704 5.44727C20.3444 5.75318 21.3933 4.26734 21.6555 4.61695C21.9614 4.96656 21.3496 5.31617 20.9563 5.70948C20.4319 6.19019 19.5578 7.02051 19.5578 7.02051C19.5578 7.02051 18.9897 7.58862 18.5527 7.37012C18.072 7.15161 18.2031 6.32129 18.2031 6.32129C18.2031 6.32129 18.3342 5.14136 18.3779 4.39845C18.3779 3.91774 18.3342 3.17482 18.7712 3.21852Z" fill="black"/>
<path d="M15.8872 7.76344C15.4502 7.71974 15.7561 9.46778 14.9257 9.90479C14.008 10.0796 13.1777 8.50636 12.8718 8.81226C12.5222 9.11817 13.0903 9.55518 13.4399 9.99219C13.8769 10.5166 14.6198 11.4343 14.6198 11.4343C14.6198 11.4343 15.1005 12.0898 15.5813 11.915C16.062 11.7402 16.062 10.9536 16.062 10.9536C16.062 10.9536 16.1057 9.77369 16.1057 9.03077C16.1494 8.46266 16.3242 7.76344 15.8872 7.76344Z" fill="black"/>
<path d="M15.1005 8.41895C15.2316 8.76856 15.1005 9.38037 14.7509 9.51148C14.4012 9.64258 13.9205 9.20557 13.7894 8.85596C13.6583 8.50635 13.8768 8.11304 14.2264 7.98194C14.6198 7.85084 15.0131 8.06934 15.1005 8.41895Z" fill="black"/>
<path d="M12.9152 3.96143C13.09 4.31104 13.0463 4.92285 12.6967 5.09766C12.3471 5.27246 11.8227 4.87915 11.6916 4.57324C11.5168 4.22363 11.6479 3.83033 11.9975 3.65552C12.3471 3.48072 12.7841 3.61182 12.9152 3.96143Z" fill="black"/>
<path d="M11.2983 9.46779C10.9487 9.72999 12.3472 10.8662 11.9538 11.6965C11.3857 12.4395 9.7251 11.7839 9.6814 12.221C9.63769 12.658 10.3369 12.658 10.8613 12.7454C11.5605 12.8765 12.7405 13.0513 12.7405 13.0513C12.7405 13.0513 13.5271 13.2261 13.7893 12.7891C14.0515 12.3521 13.4834 11.7402 13.4834 11.7402C13.4834 11.7402 12.6968 10.8225 12.2598 10.2544C11.9976 9.81739 11.6916 9.20558 11.2983 9.46779Z" fill="black"/>
<path d="M11.1672 10.4729C11.4731 10.6477 11.8227 11.2158 11.6479 11.5217C11.4731 11.8276 10.8176 11.8276 10.5116 11.6528C10.2057 11.478 10.0746 11.041 10.2494 10.7351C10.4242 10.3855 10.8613 10.2543 11.1672 10.4729Z" fill="black"/>
<path d="M9.68136 5.05394C9.28805 5.22875 10.3806 6.62718 9.89987 7.3701C9.20065 7.98191 7.71481 7.02049 7.54001 7.4138C7.40891 7.85081 8.10812 7.93821 8.58884 8.15672C9.24435 8.41892 10.3806 8.85593 10.3806 8.85593C10.3806 8.85593 11.1235 9.20554 11.4731 8.81223C11.8227 8.41892 11.4294 7.71971 11.4294 7.71971C11.4294 7.71971 10.8613 6.67088 10.5554 6.01537C10.2495 5.53465 10.0747 4.83544 9.68136 5.05394Z" fill="black"/>
<path d="M9.33168 5.97159C9.59388 6.2338 9.81239 6.80191 9.59388 7.10782C9.33168 7.37003 8.71986 7.23892 8.45766 6.97672C8.19545 6.71451 8.15175 6.3212 8.41396 6.0153C8.63246 5.75309 9.06947 5.75309 9.33168 5.97159Z" fill="black"/>
<path d="M6.05445 8.20042C5.79224 8.55003 7.49659 9.20555 7.40918 10.1233C7.10328 10.9973 5.31153 10.9536 5.44264 11.3469C5.53004 11.7839 6.18555 11.5217 6.75367 11.4343C7.45288 11.3032 8.63281 11.1284 8.63281 11.1284C8.63281 11.1284 9.41943 11.041 9.55053 10.5166C9.63794 9.99217 8.93872 9.59886 8.93872 9.59886C8.93872 9.59886 7.9336 8.98704 7.32178 8.59373C6.84107 8.33153 6.31666 7.85082 6.05445 8.20042Z" fill="black"/>
<path d="M6.2728 9.20554C6.6224 9.29294 7.14682 9.68625 7.05942 10.0359C6.97201 10.3855 6.3602 10.604 6.01059 10.5166C5.66098 10.4292 5.39878 10.0796 5.48618 9.72995C5.52988 9.38034 5.87949 9.11814 6.2728 9.20554Z" fill="black"/>
<path d="M5.00536 12.1335C4.91796 12.5705 6.666 12.5268 6.97191 13.4008C7.01561 14.3186 5.31127 14.9304 5.57348 15.28C5.83568 15.6733 6.3601 15.1926 6.79711 14.8867C7.40892 14.5371 8.45775 13.9253 8.45775 13.9253C8.45775 13.9253 9.15696 13.5319 9.06956 13.0512C8.98216 12.5268 8.19554 12.4394 8.19554 12.4394C8.19554 12.4394 7.01561 12.2209 6.3164 12.0898C5.79198 11.9587 5.13647 11.6965 5.00536 12.1335Z" fill="black"/>
<path d="M5.57363 13.0075C5.92324 12.9638 6.53505 13.1386 6.62245 13.5319C6.66615 13.8816 6.18544 14.2749 5.83583 14.3623C5.44252 14.406 5.04922 14.1438 5.00551 13.7504C4.96181 13.4008 5.18032 13.0512 5.57363 13.0075Z" fill="black"/>
<path d="M5.04907 16.3288C5.09277 16.7658 6.75341 16.1103 7.32153 16.8095C7.71484 17.6398 6.3601 18.8197 6.70971 19.0819C7.05932 19.3441 7.40893 18.6886 7.71484 18.2516C8.15185 17.6835 8.89476 16.7221 8.89476 16.7221C8.89476 16.7221 9.41918 16.1103 9.15697 15.6733C8.89476 15.2363 8.10814 15.4111 8.10814 15.4111C8.10814 15.4111 6.92822 15.6296 6.229 15.7607C5.70459 15.8918 5.00537 15.8918 5.04907 16.3288Z" fill="black"/>
<path d="M5.87962 16.9407C6.18553 16.7658 6.84105 16.7221 7.01585 17.0281C7.19066 17.334 6.88475 17.9021 6.57884 18.0769C6.27293 18.2517 5.83592 18.1643 5.66112 17.8584C5.44261 17.5525 5.53002 17.1155 5.87962 16.9407Z" fill="black"/>
<path d="M19.4265 3.96143C19.2517 4.31104 19.2954 4.92285 19.645 5.09766C19.9946 5.27246 20.5191 4.87915 20.6502 4.57324C20.825 4.22363 20.6939 3.83033 20.3443 3.65552C19.9946 3.48072 19.6013 3.61182 19.4265 3.96143Z" fill="black"/>
<path d="M22.7044 5.05394C23.0977 5.22875 22.0052 6.62718 22.4859 7.3701C23.1851 7.98191 24.6709 7.02049 24.8457 7.4138C24.9768 7.85081 24.2776 7.93821 23.7969 8.15672C23.1414 8.41892 22.0052 8.85593 22.0052 8.85593C22.0052 8.85593 21.2622 9.20554 20.9126 8.81223C20.563 8.41892 20.9563 7.71971 20.9563 7.71971C20.9563 7.71971 21.5244 6.67088 21.8304 6.01537C22.0926 5.53465 22.3111 4.83544 22.7044 5.05394Z" fill="black"/>
<path d="M23.0103 5.97159C22.7481 6.2338 22.5296 6.80191 22.7481 7.10782C23.0103 7.37003 23.6222 7.23892 23.8844 6.97672C24.1466 6.71451 24.1903 6.3212 23.9281 6.0153C23.7533 5.75309 23.3162 5.75309 23.0103 5.97159Z" fill="black"/>
<path d="M26.2878 8.20042C26.55 8.55003 24.8457 9.20555 24.9331 10.1233C25.239 10.9973 27.0307 10.9536 26.8996 11.3469C26.8122 11.7839 26.1567 11.5217 25.5886 11.4343C24.8894 11.3032 23.7095 11.1284 23.7095 11.1284C23.7095 11.1284 22.9228 11.041 22.8354 10.5603C22.748 10.0359 23.4473 9.64256 23.4473 9.64256C23.4473 9.64256 24.4524 9.03074 25.0642 8.63743C25.5449 8.33153 26.0256 7.85081 26.2878 8.20042Z" fill="black"/>
<path d="M26.1129 9.20554C25.7633 9.29294 25.2389 9.68625 25.3263 10.0359C25.4137 10.3855 26.0255 10.604 26.3751 10.5166C26.7248 10.4292 26.987 10.0796 26.8996 9.72995C26.8122 9.38034 26.4626 9.11814 26.1129 9.20554Z" fill="black"/>
<path d="M27.3367 12.1335C27.4241 12.5705 25.676 12.5268 25.3701 13.4008C25.3264 14.3186 27.0307 14.9304 26.7685 15.28C26.5063 15.6733 25.9819 15.1926 25.5449 14.8867C24.9331 14.5371 23.8843 13.9253 23.8843 13.9253C23.8843 13.9253 23.1851 13.5319 23.2725 13.0512C23.3599 12.5268 24.1465 12.4394 24.1465 12.4394C24.1465 12.4394 25.3264 12.2209 26.0256 12.0898C26.5937 11.9587 27.2492 11.6965 27.3367 12.1335Z" fill="black"/>
<path d="M26.8123 13.0075C26.4627 12.9638 25.8509 13.1386 25.7635 13.5319C25.7198 13.8816 26.2005 14.2749 26.5501 14.3623C26.8997 14.406 27.2494 14.1875 27.3368 13.7942C27.4242 13.4008 27.162 13.0512 26.8123 13.0075Z" fill="black"/>
<path d="M27.2929 16.3288C27.2492 16.7658 25.5885 16.1103 25.0204 16.8095C24.6271 17.6398 25.9819 18.8197 25.6322 19.0819C25.2826 19.3441 24.933 18.6886 24.6271 18.2516C24.1901 17.6835 23.4472 16.7221 23.4472 16.7221C23.4472 16.7221 22.9228 16.1103 23.185 15.6733C23.4472 15.2363 24.2338 15.4111 24.2338 15.4111C24.2338 15.4111 25.4137 15.6296 26.113 15.7607C26.6374 15.8918 27.3803 15.8918 27.2929 16.3288Z" fill="black"/>
<path d="M26.5066 16.9407C26.2007 16.7658 25.5452 16.7221 25.3704 17.0281C25.1956 17.334 25.5015 17.9021 25.8074 18.0769C26.1133 18.2517 26.5503 18.1643 26.7251 17.8584C26.8999 17.5525 26.8125 17.1155 26.5066 16.9407Z" fill="black"/>
<path d="M9.37565 13.2697C9.28825 13.7068 11.08 13.6631 11.3422 14.5371C11.3859 15.4548 9.68156 16.0666 9.94377 16.4162C10.206 16.8095 10.7304 16.3288 11.1674 16.0229C11.7792 15.6733 12.828 15.0615 12.828 15.0615C12.828 15.0615 13.5273 14.6682 13.4398 14.1875C13.3524 13.6631 12.5658 13.5757 12.5658 13.5757C12.5658 13.5757 11.3859 13.3134 10.6867 13.1823C10.1623 13.0949 9.50675 12.8327 9.37565 13.2697Z" fill="black"/>
<path d="M9.94369 14.1001C10.2933 14.0564 10.9051 14.2312 10.9925 14.6245C11.0362 14.9741 10.5555 15.3675 10.2059 15.4549C9.85629 15.4986 9.50668 15.28 9.41928 14.8867C9.33187 14.5371 9.55038 14.1438 9.94369 14.1001Z" fill="black"/>
<path d="M16.5426 7.76344C16.9796 7.71974 16.6737 9.46778 17.504 9.90479C18.4217 10.0796 19.252 8.50636 19.558 8.81226C19.9076 9.11817 19.3395 9.55518 18.9898 9.99219C18.5528 10.5166 17.7662 11.4343 17.7662 11.4343C17.7662 11.4343 17.2855 12.0898 16.8048 11.915C16.3241 11.7402 16.3241 10.9536 16.3241 10.9536C16.3241 10.9536 16.2804 9.77369 16.2804 9.03077C16.2804 8.46266 16.1056 7.76344 16.5426 7.76344Z" fill="black"/>
<path d="M17.2855 8.41895C17.1544 8.76856 17.2855 9.38037 17.6351 9.51148C17.9847 9.64258 18.4654 9.20557 18.5965 8.85596C18.7276 8.50635 18.5091 8.11304 18.1595 7.98194C17.8099 7.85084 17.4166 8.06934 17.2855 8.41895Z" fill="black"/>
<path d="M21.0874 9.46779C21.437 9.72999 20.0386 10.8662 20.4319 11.6965C21 12.4395 22.6607 11.7839 22.7044 12.221C22.7481 12.658 22.0489 12.658 21.5245 12.7454C20.8252 12.8765 19.6453 13.0513 19.6453 13.0513C19.6453 13.0513 18.8587 13.2261 18.5965 12.7891C18.3343 12.3521 18.9024 11.7402 18.9024 11.7402C18.9024 11.7402 19.689 10.8225 20.126 10.2544C20.4319 9.81739 20.7378 9.20558 21.0874 9.46779Z" fill="black"/>
<path d="M21.2186 10.4729C20.9127 10.6477 20.5631 11.2158 20.7379 11.5217C20.9127 11.8276 21.5683 11.8276 21.8742 11.6528C22.1801 11.478 22.3112 11.041 22.1364 10.7351C21.9616 10.3855 21.5683 10.2543 21.2186 10.4729Z" fill="black"/>
<path d="M23.0102 13.2697C23.0976 13.7068 21.3059 13.6631 21.0437 14.5371C21 15.4548 22.7043 16.0666 22.4421 16.4162C22.1799 16.8095 21.6555 16.3288 21.2185 16.0229C20.6067 15.6733 19.5579 15.0615 19.5579 15.0615C19.5579 15.0615 18.8586 14.6682 18.946 14.1875C19.0334 13.6631 19.8201 13.5757 19.8201 13.5757C19.8201 13.5757 21 13.3571 21.6992 13.226C22.2673 13.0949 22.9228 12.8327 23.0102 13.2697Z" fill="black"/>
<path d="M22.4859 14.1001C22.1363 14.0564 21.5245 14.2312 21.4371 14.6245C21.3934 14.9741 21.8741 15.3675 22.2237 15.4549C22.5733 15.4986 22.9229 15.28 23.0103 14.8867C23.0977 14.5371 22.8355 14.1438 22.4859 14.1001Z" fill="black"/>
<path d="M17.5476 13.6631C17.8535 13.0076 18.2031 12.3083 18.6401 11.6091C18.9897 11.0847 19.3393 10.5603 19.7763 10.0359C19.2519 10.4729 18.7712 10.9099 18.3342 11.3469C18.0283 11.6528 17.7661 11.9587 17.5039 12.2646C17.2417 12.5705 16.9795 12.9202 16.761 13.2261C16.6736 13.3572 16.5862 13.4883 16.4988 13.6631C16.4988 13.7068 16.324 13.7068 16.1929 13.7505C16.0181 13.7505 15.887 13.7068 15.887 13.6631C15.7996 13.532 15.7121 13.3572 15.581 13.2261C15.3625 12.9202 15.1003 12.5705 14.8381 12.2646C14.5759 11.9587 14.3137 11.6528 14.0078 11.3469C13.5708 10.9099 13.0901 10.4292 12.5657 10.0359C13.0027 10.5603 13.3523 11.0847 13.7019 11.6091C14.1389 12.3083 14.5322 13.0076 14.7944 13.6631C14.9692 14.0127 14.9255 14.7119 14.9255 14.7556C14.7507 16.0229 13.396 29.7451 13.396 29.7451C13.6582 29.7888 18.6401 29.7888 18.946 29.7451C18.946 29.7451 17.5913 16.0229 17.4165 14.7556C17.4165 14.7556 17.3728 14.0564 17.5476 13.6631Z" fill="black"/>
</svg>
