<svg width="36" height="43" viewBox="0 0 36 43" fill="none" xmlns="http://www.w3.org/2000/svg">
<path d="M13.5119 1.15871C12.8264 1.15871 13.6489 3.90045 12.4152 4.65443C11.0443 5.13424 9.39924 2.80376 8.98798 3.3521C8.50818 3.90045 9.46779 4.4488 10.0847 5.06569C10.9072 5.81967 12.2781 7.122 12.2781 7.122C12.2781 7.122 13.1691 8.01306 13.9231 7.67034C14.6771 7.32763 14.4715 6.0253 14.4715 6.0253C14.4715 6.0253 14.2658 4.17463 14.1287 3.07793C14.0602 2.25541 14.1973 1.09017 13.5119 1.15871Z" fill="black"/>
<path d="M20.0233 1.22725C19.4064 0.953072 18.9951 3.76335 17.5557 3.96899C16.1163 3.8319 15.6365 1.02162 15.0196 1.36433C14.4027 1.63851 15.0196 2.59812 15.2938 3.35209C15.7051 4.38025 16.3905 6.16238 16.3905 6.16238C16.3905 6.16238 16.8018 7.39616 17.6243 7.32761C18.4468 7.32761 18.7895 6.09383 18.7895 6.09383C18.7895 6.09383 19.4064 4.3117 19.8177 3.21501C20.0918 2.46103 20.7087 1.50142 20.0233 1.22725Z" fill="black"/>
<path d="M18.5838 1.84413C18.5838 2.46102 18.104 3.28354 17.5557 3.35209C16.9388 3.35209 16.459 2.46102 16.459 1.91267C16.459 1.29578 16.9388 0.815979 17.4871 0.815979C18.104 0.815979 18.5838 1.29578 18.5838 1.84413Z" fill="black"/>
<path d="M21.5995 1.15872C22.285 1.15872 21.4625 3.90045 22.6962 4.65443C24.0671 5.13424 25.7121 2.80376 26.1234 3.35211C26.6032 3.90045 25.6436 4.4488 25.0267 5.06569C24.2042 5.81967 22.8333 7.122 22.8333 7.122C22.8333 7.122 21.9423 8.01306 21.2568 7.67034C20.5028 7.32763 20.7085 6.0253 20.7085 6.0253C20.7085 6.0253 20.9141 4.17463 20.9826 3.00939C20.9826 2.25541 20.9141 1.09017 21.5995 1.15872Z" fill="black"/>
<path d="M17.0757 8.28727C16.3903 8.21873 16.8701 10.9605 15.5677 11.6459C14.1283 11.9201 12.826 9.45251 12.3462 9.93232C11.7979 10.4121 12.6889 11.0976 13.2373 11.783C13.9227 12.6055 15.0879 14.0449 15.0879 14.0449C15.0879 14.0449 15.8419 15.0731 16.5959 14.7989C17.3499 14.5247 17.3499 13.2909 17.3499 13.2909C17.3499 13.2909 17.4184 11.4403 17.4184 10.275C17.487 9.38397 17.7611 8.28727 17.0757 8.28727Z" fill="black"/>
<path d="M15.842 9.31539C16.0476 9.86374 15.842 10.8234 15.2936 11.029C14.7453 11.2346 13.9913 10.5492 13.7857 10.0008C13.58 9.45248 13.9227 8.83559 14.4711 8.62996C15.088 8.42433 15.7049 8.76705 15.842 9.31539Z" fill="black"/>
<path d="M12.4146 2.32399C12.6888 2.87233 12.6203 3.83194 12.0719 4.10612C11.5236 4.38029 10.7011 3.7634 10.4954 3.28359C10.2213 2.73525 10.4269 2.11835 10.9752 1.84418C11.5236 1.57001 12.209 1.77564 12.4146 2.32399Z" fill="black"/>
<path d="M9.87877 10.9605C9.33042 11.3717 11.5238 13.1538 10.9069 14.4562C10.0159 15.6214 7.4112 14.5933 7.34266 15.2787C7.27412 15.9641 8.37081 15.9641 9.19333 16.1012C10.29 16.3068 12.1407 16.581 12.1407 16.581C12.1407 16.581 13.3745 16.8552 13.7857 16.1698C14.197 15.4843 13.3059 14.5247 13.3059 14.5247C13.3059 14.5247 12.0722 13.0853 11.3867 12.1942C10.9755 11.5088 10.4957 10.5492 9.87877 10.9605Z" fill="black"/>
<path d="M9.67306 12.5369C10.1529 12.811 10.7012 13.7021 10.427 14.1819C10.1529 14.6617 9.12471 14.6617 8.6449 14.3875C8.1651 14.1134 7.95947 13.4279 8.23364 12.9481C8.50782 12.3998 9.19325 12.1942 9.67306 12.5369Z" fill="black"/>
<path d="M7.3426 4.0375C6.72571 4.31167 8.43929 6.50506 7.68532 7.6703C6.58862 8.62991 4.25814 7.12196 3.98397 7.73885C3.77834 8.42428 4.87503 8.56137 5.62901 8.90409C6.65716 9.31535 8.43929 10.0008 8.43929 10.0008C8.43929 10.0008 9.60453 10.5491 10.1529 9.93224C10.7012 9.31535 10.0843 8.21865 10.0843 8.21865C10.0843 8.21865 9.19327 6.57361 8.71347 5.54546C8.23366 4.79148 7.95949 3.69478 7.3426 4.0375Z" fill="black"/>
<path d="M6.79409 5.4769C7.20535 5.88816 7.54807 6.77923 7.20535 7.25903C6.79409 7.67029 5.83448 7.46466 5.42322 7.0534C5.01196 6.64214 4.94341 6.02525 5.35468 5.54544C5.69739 5.13418 6.38283 5.13418 6.79409 5.4769Z" fill="black"/>
<path d="M1.65345 8.97262C1.24219 9.52097 3.91539 10.5491 3.7783 11.9885C3.29849 13.3594 0.488212 13.2909 0.693843 13.9078C0.83093 14.5932 1.85908 14.1819 2.75015 14.0448C3.84684 13.8392 5.69752 13.565 5.69752 13.565C5.69752 13.565 6.9313 13.428 7.13693 12.6054C7.27402 11.7829 6.17732 11.166 6.17732 11.166C6.17732 11.166 4.60082 10.2064 3.64121 9.58952C2.88723 9.17825 2.06471 8.42428 1.65345 8.97262Z" fill="black"/>
<path d="M1.99644 10.5492C2.54478 10.6863 3.36731 11.3032 3.23022 11.8515C3.09313 12.3999 2.13352 12.7426 1.58518 12.6055C1.03683 12.4684 0.625567 11.9201 0.762653 11.3717C0.831197 10.8234 1.37954 10.4121 1.99644 10.5492Z" fill="black"/>
<path d="M0.00838563 15.1415C-0.128701 15.827 2.61304 15.7584 3.09284 17.1293C3.16139 18.5687 0.48819 19.5283 0.899451 20.0767C1.31071 20.6936 2.13323 19.9396 2.81867 19.4598C3.77828 18.9114 5.42332 17.9518 5.42332 17.9518C5.42332 17.9518 6.52002 17.3349 6.38293 16.5809C6.24584 15.7584 5.01206 15.6213 5.01206 15.6213C5.01206 15.6213 3.16139 15.2786 2.06469 15.073C1.24217 14.8674 0.214016 14.4561 0.00838563 15.1415Z" fill="black"/>
<path d="M0.899714 16.5125C1.44806 16.4439 2.40767 16.7181 2.54476 17.335C2.6133 17.8833 1.85932 18.5002 1.31097 18.6373C0.694083 18.7059 0.0771924 18.2946 0.00864896 17.6777C-0.0598945 17.1294 0.282823 16.581 0.899714 16.5125Z" fill="black"/>
<path d="M0.0770362 21.7217C0.14558 22.4071 2.75023 21.3789 3.6413 22.4756C4.25819 23.778 2.13334 25.6286 2.68169 26.0399C3.23004 26.4512 3.77838 25.423 4.25819 24.7376C4.94362 23.8465 6.10886 22.3385 6.10886 22.3385C6.10886 22.3385 6.93138 21.3789 6.52012 20.6935C6.10886 20.0081 4.87508 20.2822 4.87508 20.2822C4.87508 20.2822 3.02441 20.625 1.92771 20.8306C1.10519 21.0362 0.00849276 21.0362 0.0770362 21.7217Z" fill="black"/>
<path d="M1.37966 22.6813C1.85947 22.4072 2.88762 22.3386 3.16179 22.8184C3.43597 23.2982 2.95616 24.1893 2.47636 24.4635C1.99655 24.7376 1.31112 24.6006 1.03694 24.1208C0.694227 23.6409 0.831314 22.9555 1.37966 22.6813Z" fill="black"/>
<path d="M22.6278 2.32399C22.3537 2.87233 22.4222 3.83194 22.9706 4.10612C23.5189 4.38029 24.3414 3.7634 24.547 3.28359C24.8212 2.73525 24.6156 2.11835 24.0672 1.84418C23.5189 1.57001 22.902 1.77564 22.6278 2.32399Z" fill="black"/>
<path d="M27.7689 4.0375C28.3857 4.31167 26.6722 6.50506 27.4261 7.6703C28.5228 8.62991 30.8533 7.12196 31.1275 7.73885C31.3331 8.42428 30.2364 8.56137 29.4824 8.90409C28.4543 9.31535 26.6722 10.0008 26.6722 10.0008C26.6722 10.0008 25.5069 10.5491 24.9586 9.93224C24.4102 9.31535 25.0271 8.21865 25.0271 8.21865C25.0271 8.21865 25.9182 6.57361 26.398 5.54546C26.8092 4.79148 27.152 3.69478 27.7689 4.0375Z" fill="black"/>
<path d="M28.2486 5.4769C27.8373 5.88816 27.4946 6.77923 27.8373 7.25903C28.2486 7.67029 29.2082 7.46466 29.6194 7.0534C30.0307 6.64214 30.0992 6.02525 29.688 5.54544C29.4138 5.13418 28.7284 5.13418 28.2486 5.4769Z" fill="black"/>
<path d="M33.3894 8.97267C33.8007 9.52102 31.1275 10.5492 31.2646 11.9886C31.7444 13.3594 34.5547 13.2909 34.349 13.9078C34.212 14.5932 33.1838 14.182 32.2927 14.0449C31.196 13.8393 29.3454 13.5651 29.3454 13.5651C29.3454 13.5651 28.1116 13.428 27.9745 12.674C27.8374 11.8515 28.9341 11.2346 28.9341 11.2346C28.9341 11.2346 30.5106 10.275 31.4702 9.6581C32.2242 9.1783 32.9782 8.42432 33.3894 8.97267Z" fill="black"/>
<path d="M33.1152 10.5492C32.5668 10.6863 31.7443 11.3032 31.8814 11.8515C32.0185 12.3999 32.9781 12.7426 33.5264 12.6055C34.0748 12.4684 34.486 11.9201 34.3489 11.3717C34.2119 10.8234 33.6635 10.4121 33.1152 10.5492Z" fill="black"/>
<path d="M35.0344 15.1415C35.1714 15.827 32.4297 15.7584 31.9499 17.1293C31.8814 18.5687 34.5545 19.5283 34.1433 20.0767C33.732 20.6936 32.9095 19.9396 32.2241 19.4598C31.2645 18.9114 29.6194 17.9518 29.6194 17.9518C29.6194 17.9518 28.5227 17.3349 28.6598 16.5809C28.7969 15.7584 30.0307 15.6213 30.0307 15.6213C30.0307 15.6213 31.8814 15.2786 32.978 15.073C33.8691 14.8674 34.8973 14.4561 35.0344 15.1415Z" fill="black"/>
<path d="M34.2117 16.5125C33.6633 16.4439 32.7037 16.7181 32.5666 17.335C32.4981 17.8833 33.2521 18.5002 33.8004 18.6373C34.3487 18.7059 34.8971 18.3632 35.0342 17.7463C35.1713 17.1294 34.76 16.581 34.2117 16.5125Z" fill="black"/>
<path d="M34.9657 21.7217C34.8972 22.4071 32.2925 21.3789 31.4015 22.4756C30.7846 23.778 32.9094 25.6286 32.3611 26.0399C31.8127 26.4512 31.2644 25.423 30.7846 24.7376C30.0991 23.8465 28.9339 22.3385 28.9339 22.3385C28.9339 22.3385 28.1114 21.3789 28.5226 20.6935C28.9339 20.0081 30.1677 20.2822 30.1677 20.2822C30.1677 20.2822 32.0183 20.625 33.115 20.8306C33.9376 21.0362 35.1028 21.0362 34.9657 21.7217Z" fill="black"/>
<path d="M33.7321 22.6813C33.2523 22.4072 32.2241 22.3386 31.9499 22.8184C31.6758 23.2982 32.1556 24.1893 32.6354 24.4635C33.1152 24.7376 33.8006 24.6006 34.0748 24.1208C34.349 23.6409 34.2119 22.9555 33.7321 22.6813Z" fill="black"/>
<path d="M6.86301 16.9237C6.72592 17.6091 9.5362 17.5406 9.94746 18.9115C10.016 20.3509 7.34281 21.3105 7.75407 21.8588C8.16533 22.4757 8.98785 21.7218 9.67329 21.242C10.6329 20.6936 12.2779 19.734 12.2779 19.734C12.2779 19.734 13.3746 19.1171 13.2375 18.3631C13.1005 17.5406 11.8667 17.4035 11.8667 17.4035C11.8667 17.4035 10.016 16.9923 8.91931 16.7866C8.09679 16.6495 7.06864 16.2383 6.86301 16.9237Z" fill="black"/>
<path d="M7.75389 18.226C8.30224 18.1575 9.26185 18.4317 9.39894 19.0486C9.46748 19.5969 8.7135 20.2138 8.16515 20.3509C7.61681 20.4194 7.06846 20.0767 6.93137 19.4598C6.79428 18.9115 7.137 18.2946 7.75389 18.226Z" fill="black"/>
<path d="M18.1041 8.28727C18.7895 8.21873 18.3097 10.9605 19.612 11.6459C21.0515 11.9201 22.3538 9.45251 22.8336 9.93232C23.3819 10.4121 22.4909 11.0976 21.9425 11.783C21.2571 12.6055 20.0233 14.0449 20.0233 14.0449C20.0233 14.0449 19.2693 15.0731 18.5154 14.7989C17.7614 14.5247 17.7614 13.2909 17.7614 13.2909C17.7614 13.2909 17.6928 11.4403 17.6928 10.275C17.6928 9.38397 17.4187 8.28727 18.1041 8.28727Z" fill="black"/>
<path d="M19.2694 9.31539C19.0637 9.86374 19.2694 10.8234 19.8177 11.029C20.3661 11.2346 21.1201 10.5492 21.3257 10.0008C21.5313 9.45248 21.1886 8.83559 20.6402 8.62996C20.0919 8.42433 19.475 8.76705 19.2694 9.31539Z" fill="black"/>
<path d="M25.2325 10.9605C25.7808 11.3717 23.5874 13.1538 24.2043 14.4562C25.0954 15.6214 27.7 14.5933 27.7686 15.2787C27.8371 15.9641 26.7404 15.9641 25.9179 16.1012C24.8212 16.3068 22.9705 16.581 22.9705 16.581C22.9705 16.581 21.7367 16.8552 21.3255 16.1698C20.9142 15.4843 21.8053 14.5247 21.8053 14.5247C21.8053 14.5247 23.0391 13.0853 23.7245 12.1942C24.2043 11.5088 24.6841 10.5492 25.2325 10.9605Z" fill="black"/>
<path d="M25.4384 12.5369C24.9586 12.811 24.4103 13.7021 24.6844 14.1819C24.9586 14.6617 25.9868 14.6617 26.4666 14.3875C26.9464 14.1134 27.152 13.4279 26.8778 12.9481C26.6037 12.3998 25.9868 12.1942 25.4384 12.5369Z" fill="black"/>
<path d="M28.2482 16.9237C28.3853 17.6091 25.575 17.5406 25.1638 18.9115C25.0952 20.3509 27.7684 21.3105 27.3572 21.8588C26.9459 22.4757 26.1234 21.7217 25.4379 21.2419C24.4783 20.6936 22.8333 19.734 22.8333 19.734C22.8333 19.734 21.7366 19.1171 21.8737 18.3631C22.0108 17.5406 23.2445 17.4035 23.2445 17.4035C23.2445 17.4035 25.0952 17.0608 26.1919 16.8552C27.083 16.6495 28.1111 16.2383 28.2482 16.9237Z" fill="black"/>
<path d="M27.426 18.226C26.8777 18.1575 25.9181 18.4317 25.781 19.0486C25.7124 19.5969 26.4664 20.2138 27.0148 20.3509C27.5631 20.4194 28.1115 20.0767 28.2485 19.4598C28.3856 18.9115 27.9744 18.2946 27.426 18.226Z" fill="black"/>
<path d="M19.6804 17.5406C20.1602 16.5125 20.7086 15.4158 21.394 14.3191C21.9423 13.4965 22.4907 12.674 23.1761 11.8515C22.3536 12.5369 21.5996 13.2224 20.9142 13.9078C20.4344 14.3876 20.0231 14.8674 19.6119 15.3472C19.2006 15.827 18.7893 16.3754 18.4466 16.8552C18.3095 17.0608 18.1725 17.2664 18.0354 17.5406C18.0354 17.6092 17.7612 17.6092 17.5556 17.6777C17.2814 17.6777 17.0758 17.6092 17.0758 17.5406C16.9387 17.335 16.8016 17.0608 16.596 16.8552C16.2532 16.3754 15.842 15.827 15.4307 15.3472C15.0195 14.8674 14.6082 14.3876 14.1284 13.9078C13.443 13.2224 12.689 12.4684 11.8665 11.8515C12.5519 12.674 13.1002 13.4965 13.6486 14.3191C14.334 15.4158 14.9509 16.5125 15.3622 17.5406C15.6363 18.089 15.5678 19.1857 15.5678 19.2542C15.2936 21.242 13.1688 42.7646 13.1688 42.7646C13.58 42.8332 21.394 42.8332 21.8738 42.7646C21.8738 42.7646 19.749 21.242 19.4748 19.2542C19.4748 19.2542 19.4062 18.1575 19.6804 17.5406Z" fill="black"/>
</svg>
