<svg width="36" height="43" viewBox="0 0 36 43" fill="none" xmlns="http://www.w3.org/2000/svg">
<path d="M13.6801 1.15871C12.9946 1.15871 13.8172 3.90045 12.5834 4.65443C11.2125 5.13424 9.56746 2.80376 9.1562 3.3521C8.67639 3.90045 9.636 4.4488 10.2529 5.06569C11.0754 5.81967 12.4463 7.122 12.4463 7.122C12.4463 7.122 13.3373 8.01306 14.0913 7.67034C14.8453 7.32763 14.6397 6.0253 14.6397 6.0253C14.6397 6.0253 14.434 4.17463 14.297 3.07793C14.2284 2.25541 14.3655 1.09017 13.6801 1.15871Z" fill="white"/>
<path d="M20.1915 1.22725C19.5746 0.953072 19.1634 3.76335 17.7239 3.96899C16.2845 3.8319 15.8047 1.02162 15.1878 1.36433C14.5709 1.63851 15.1878 2.59812 15.462 3.35209C15.8733 4.38025 16.5587 6.16238 16.5587 6.16238C16.5587 6.16238 16.97 7.39616 17.7925 7.32761C18.615 7.32761 18.9577 6.09383 18.9577 6.09383C18.9577 6.09383 19.5746 4.3117 19.9859 3.21501C20.2601 2.46103 20.8769 1.50142 20.1915 1.22725Z" fill="white"/>
<path d="M18.752 1.84413C18.752 2.46102 18.2722 3.28354 17.7239 3.35209C17.107 3.35209 16.6272 2.46102 16.6272 1.91267C16.6272 1.29578 17.107 0.815979 17.6553 0.815979C18.2722 0.815979 18.752 1.29578 18.752 1.84413Z" fill="white"/>
<path d="M21.7678 1.15872C22.4532 1.15872 21.6307 3.90045 22.8644 4.65443C24.2353 5.13424 25.8804 2.80376 26.2916 3.35211C26.7714 3.90045 25.8118 4.4488 25.1949 5.06569C24.3724 5.81967 23.0015 7.122 23.0015 7.122C23.0015 7.122 22.1105 8.01306 21.425 7.67034C20.6711 7.32763 20.8767 6.0253 20.8767 6.0253C20.8767 6.0253 21.0823 4.17463 21.1509 3.00939C21.1509 2.25541 21.0823 1.09017 21.7678 1.15872Z" fill="white"/>
<path d="M17.2439 8.28727C16.5585 8.21873 17.0383 10.9605 15.736 11.6459C14.2965 11.9201 12.9942 9.45251 12.5144 9.93232C11.9661 10.4121 12.8571 11.0976 13.4055 11.783C14.0909 12.6055 15.2562 14.0449 15.2562 14.0449C15.2562 14.0449 16.0101 15.0731 16.7641 14.7989C17.5181 14.5247 17.5181 13.2909 17.5181 13.2909C17.5181 13.2909 17.5866 11.4403 17.5866 10.275C17.6552 9.38397 17.9293 8.28727 17.2439 8.28727Z" fill="white"/>
<path d="M16.0102 9.31539C16.2158 9.86374 16.0102 10.8234 15.4618 11.029C14.9135 11.2346 14.1595 10.5492 13.9539 10.0008C13.7482 9.45248 14.091 8.83559 14.6393 8.62996C15.2562 8.42433 15.8731 8.76705 16.0102 9.31539Z" fill="white"/>
<path d="M12.5831 2.32399C12.8573 2.87233 12.7887 3.83194 12.2404 4.10612C11.692 4.38029 10.8695 3.7634 10.6639 3.28359C10.3897 2.73525 10.5953 2.11835 11.1437 1.84418C11.692 1.57001 12.3775 1.77564 12.5831 2.32399Z" fill="white"/>
<path d="M10.047 10.9605C9.49863 11.3717 11.692 13.1538 11.0751 14.4562C10.1841 15.6214 7.57942 14.5933 7.51087 15.2787C7.44233 15.9641 8.53903 15.9641 9.36155 16.1012C10.4582 16.3068 12.3089 16.581 12.3089 16.581C12.3089 16.581 13.5427 16.8552 13.954 16.1698C14.3652 15.4843 13.4742 14.5247 13.4742 14.5247C13.4742 14.5247 12.2404 13.0853 11.5549 12.1942C11.1437 11.5088 10.6639 10.5492 10.047 10.9605Z" fill="white"/>
<path d="M9.84127 12.5369C10.3211 12.811 10.8694 13.7021 10.5952 14.1819C10.3211 14.6617 9.29292 14.6617 8.81312 14.3875C8.33331 14.1134 8.12768 13.4279 8.40186 12.9481C8.67603 12.3998 9.36146 12.1942 9.84127 12.5369Z" fill="white"/>
<path d="M7.51081 4.0375C6.89392 4.31167 8.60751 6.50506 7.85353 7.6703C6.75683 8.62991 4.42635 7.12196 4.15218 7.73885C3.94655 8.42428 5.04325 8.56137 5.79722 8.90409C6.82538 9.31535 8.60751 10.0008 8.60751 10.0008C8.60751 10.0008 9.77274 10.5491 10.3211 9.93224C10.8694 9.31535 10.2525 8.21865 10.2525 8.21865C10.2525 8.21865 9.36149 6.57361 8.88168 5.54546C8.40188 4.79148 8.1277 3.69478 7.51081 4.0375Z" fill="white"/>
<path d="M6.9623 5.4769C7.37356 5.88816 7.71628 6.77923 7.37356 7.25903C6.9623 7.67029 6.00269 7.46466 5.59143 7.0534C5.18017 6.64214 5.11163 6.02525 5.52289 5.54544C5.86561 5.13418 6.55104 5.13418 6.9623 5.4769Z" fill="white"/>
<path d="M1.82166 8.97262C1.4104 9.52097 4.0836 10.5491 3.94651 11.9885C3.46671 13.3594 0.656425 13.2909 0.862056 13.9078C0.999143 14.5932 2.02729 14.1819 2.91836 14.0448C4.01506 13.8392 5.86573 13.565 5.86573 13.565C5.86573 13.565 7.09951 13.428 7.30514 12.6054C7.44223 11.7829 6.34553 11.166 6.34553 11.166C6.34553 11.166 4.76903 10.2064 3.80943 9.58952C3.05545 9.17825 2.23292 8.42428 1.82166 8.97262Z" fill="white"/>
<path d="M2.16465 10.5492C2.713 10.6863 3.53552 11.3032 3.39843 11.8515C3.26134 12.3999 2.30174 12.7426 1.75339 12.6055C1.20504 12.4684 0.793779 11.9201 0.930866 11.3717C0.99941 10.8234 1.54776 10.4121 2.16465 10.5492Z" fill="white"/>
<path d="M0.176599 15.1415C0.0395116 15.827 2.78125 15.7584 3.26105 17.1293C3.3296 18.5687 0.656403 19.5283 1.06766 20.0767C1.47892 20.6936 2.30145 19.9396 2.98688 19.4598C3.94649 18.9114 5.59153 17.9518 5.59153 17.9518C5.59153 17.9518 6.68823 17.3349 6.55114 16.5809C6.41405 15.7584 5.18027 15.6213 5.18027 15.6213C5.18027 15.6213 3.3296 15.2786 2.2329 15.073C1.41038 14.8674 0.382229 14.4561 0.176599 15.1415Z" fill="white"/>
<path d="M1.06793 16.5125C1.61627 16.4439 2.57588 16.7181 2.71297 17.335C2.78151 17.8833 2.02754 18.5002 1.47919 18.6373C0.862296 18.7059 0.245405 18.2946 0.176862 17.6777C0.108318 17.1294 0.451036 16.581 1.06793 16.5125Z" fill="white"/>
<path d="M0.245249 21.7217C0.313793 22.4071 2.91845 21.3789 3.80951 22.4756C4.4264 23.778 2.30155 25.6286 2.8499 26.0399C3.39825 26.4512 3.9466 25.423 4.4264 24.7376C5.11184 23.8465 6.27708 22.3385 6.27708 22.3385C6.27708 22.3385 7.0996 21.3789 6.68834 20.6935C6.27708 20.0081 5.04329 20.2822 5.04329 20.2822C5.04329 20.2822 3.19262 20.625 2.09592 20.8306C1.2734 21.0362 0.176706 21.0362 0.245249 21.7217Z" fill="white"/>
<path d="M1.54787 22.6813C2.02768 22.4072 3.05583 22.3386 3.33001 22.8184C3.60418 23.2982 3.12438 24.1893 2.64457 24.4635C2.16477 24.7376 1.47933 24.6006 1.20516 24.1208C0.86244 23.6409 0.999527 22.9555 1.54787 22.6813Z" fill="white"/>
<path d="M22.796 2.32399C22.5219 2.87233 22.5904 3.83194 23.1388 4.10612C23.6871 4.38029 24.5096 3.7634 24.7153 3.28359C24.9894 2.73525 24.7838 2.11835 24.2355 1.84418C23.6871 1.57001 23.0702 1.77564 22.796 2.32399Z" fill="white"/>
<path d="M27.9371 4.0375C28.554 4.31167 26.8404 6.50506 27.5943 7.6703C28.691 8.62991 31.0215 7.12196 31.2957 7.73885C31.5013 8.42428 30.4046 8.56137 29.6507 8.90409C28.6225 9.31535 26.8404 10.0008 26.8404 10.0008C26.8404 10.0008 25.6751 10.5491 25.1268 9.93224C24.5784 9.31535 25.1953 8.21865 25.1953 8.21865C25.1953 8.21865 26.0864 6.57361 26.5662 5.54546C26.9775 4.79148 27.3202 3.69478 27.9371 4.0375Z" fill="white"/>
<path d="M28.4168 5.4769C28.0055 5.88816 27.6628 6.77923 28.0055 7.25903C28.4168 7.67029 29.3764 7.46466 29.7877 7.0534C30.1989 6.64214 30.2675 6.02525 29.8562 5.54544C29.582 5.13418 28.8966 5.13418 28.4168 5.4769Z" fill="white"/>
<path d="M33.5577 8.97267C33.9689 9.52102 31.2957 10.5492 31.4328 11.9886C31.9126 13.3594 34.7229 13.2909 34.5173 13.9078C34.3802 14.5932 33.352 14.182 32.461 14.0449C31.3643 13.8393 29.5136 13.5651 29.5136 13.5651C29.5136 13.5651 28.2798 13.428 28.1427 12.674C28.0056 11.8515 29.1023 11.2346 29.1023 11.2346C29.1023 11.2346 30.6788 10.275 31.6384 9.6581C32.3924 9.1783 33.1464 8.42432 33.5577 8.97267Z" fill="white"/>
<path d="M33.2834 10.5492C32.735 10.6863 31.9125 11.3032 32.0496 11.8515C32.1867 12.3999 33.1463 12.7426 33.6946 12.6055C34.243 12.4684 34.6542 11.9201 34.5172 11.3717C34.3801 10.8234 33.8317 10.4121 33.2834 10.5492Z" fill="white"/>
<path d="M35.2026 15.1415C35.3397 15.827 32.5979 15.7584 32.1181 17.1293C32.0496 18.5687 34.7228 19.5283 34.3115 20.0767C33.9002 20.6936 33.0777 19.9396 32.3923 19.4598C31.4327 18.9114 29.7876 17.9518 29.7876 17.9518C29.7876 17.9518 28.6909 17.3349 28.828 16.5809C28.9651 15.7584 30.1989 15.6213 30.1989 15.6213C30.1989 15.6213 32.0496 15.2786 33.1463 15.073C34.0373 14.8674 35.0655 14.4561 35.2026 15.1415Z" fill="white"/>
<path d="M34.3799 16.5125C33.8315 16.4439 32.8719 16.7181 32.7348 17.335C32.6663 17.8833 33.4203 18.5002 33.9686 18.6373C34.517 18.7059 35.0653 18.3632 35.2024 17.7463C35.3395 17.1294 34.9282 16.581 34.3799 16.5125Z" fill="white"/>
<path d="M35.1339 21.7217C35.0654 22.4071 32.4607 21.3789 31.5697 22.4756C30.9528 23.778 33.0776 25.6286 32.5293 26.0399C31.9809 26.4512 31.4326 25.423 30.9528 24.7376C30.2673 23.8465 29.1021 22.3385 29.1021 22.3385C29.1021 22.3385 28.2796 21.3789 28.6908 20.6935C29.1021 20.0081 30.3359 20.2822 30.3359 20.2822C30.3359 20.2822 32.1866 20.625 33.2832 20.8306C34.1058 21.0362 35.271 21.0362 35.1339 21.7217Z" fill="white"/>
<path d="M33.9003 22.6813C33.4205 22.4072 32.3923 22.3386 32.1182 22.8184C31.844 23.2982 32.3238 24.1893 32.8036 24.4635C33.2834 24.7376 33.9688 24.6006 34.243 24.1208C34.5172 23.6409 34.3801 22.9555 33.9003 22.6813Z" fill="white"/>
<path d="M7.03122 16.9237C6.89413 17.6091 9.70441 17.5406 10.1157 18.9115C10.1842 20.3509 7.51102 21.3105 7.92228 21.8588C8.33354 22.4757 9.15607 21.7218 9.8415 21.242C10.8011 20.6936 12.4462 19.734 12.4462 19.734C12.4462 19.734 13.5428 19.1171 13.4058 18.3631C13.2687 17.5406 12.0349 17.4035 12.0349 17.4035C12.0349 17.4035 10.1842 16.9923 9.08752 16.7866C8.265 16.6495 7.23685 16.2383 7.03122 16.9237Z" fill="white"/>
<path d="M7.92211 18.226C8.47045 18.1575 9.43006 18.4317 9.56715 19.0486C9.63569 19.5969 8.88171 20.2138 8.33337 20.3509C7.78502 20.4194 7.23667 20.0767 7.09958 19.4598C6.9625 18.9115 7.30521 18.2946 7.92211 18.226Z" fill="white"/>
<path d="M18.2723 8.28727C18.9577 8.21873 18.4779 10.9605 19.7803 11.6459C21.2197 11.9201 22.522 9.45251 23.0018 9.93232C23.5501 10.4121 22.6591 11.0976 22.1107 11.783C21.4253 12.6055 20.1915 14.0449 20.1915 14.0449C20.1915 14.0449 19.4375 15.0731 18.6836 14.7989C17.9296 14.5247 17.9296 13.2909 17.9296 13.2909C17.9296 13.2909 17.861 11.4403 17.861 10.275C17.861 9.38397 17.5869 8.28727 18.2723 8.28727Z" fill="white"/>
<path d="M19.4376 9.31539C19.232 9.86374 19.4376 10.8234 19.9859 11.029C20.5343 11.2346 21.2883 10.5492 21.4939 10.0008C21.6995 9.45248 21.3568 8.83559 20.8085 8.62996C20.2601 8.42433 19.6432 8.76705 19.4376 9.31539Z" fill="white"/>
<path d="M25.4007 10.9605C25.949 11.3717 23.7556 13.1538 24.3725 14.4562C25.2636 15.6214 27.8682 14.5933 27.9368 15.2787C28.0053 15.9641 26.9086 15.9641 26.0861 16.1012C24.9894 16.3068 23.1387 16.581 23.1387 16.581C23.1387 16.581 21.905 16.8552 21.4937 16.1698C21.0824 15.4843 21.9735 14.5247 21.9735 14.5247C21.9735 14.5247 23.2073 13.0853 23.8927 12.1942C24.3725 11.5088 24.8523 10.5492 25.4007 10.9605Z" fill="white"/>
<path d="M25.6066 12.5369C25.1268 12.811 24.5785 13.7021 24.8527 14.1819C25.1268 14.6617 26.155 14.6617 26.6348 14.3875C27.1146 14.1134 27.3202 13.4279 27.046 12.9481C26.7719 12.3998 26.155 12.1942 25.6066 12.5369Z" fill="white"/>
<path d="M28.4164 16.9237C28.5535 17.6091 25.7432 17.5406 25.332 18.9115C25.2634 20.3509 27.9366 21.3105 27.5254 21.8588C27.1141 22.4757 26.2916 21.7217 25.6061 21.2419C24.6465 20.6936 23.0015 19.734 23.0015 19.734C23.0015 19.734 21.9048 19.1171 22.0419 18.3631C22.179 17.5406 23.4128 17.4035 23.4128 17.4035C23.4128 17.4035 25.2634 17.0608 26.3601 16.8552C27.2512 16.6495 28.2793 16.2383 28.4164 16.9237Z" fill="white"/>
<path d="M27.5942 18.226C27.0459 18.1575 26.0863 18.4317 25.9492 19.0486C25.8806 19.5969 26.6346 20.2138 27.183 20.3509C27.7313 20.4194 28.2797 20.0767 28.4168 19.4598C28.5538 18.9115 28.1426 18.2946 27.5942 18.226Z" fill="white"/>
<path d="M19.8486 17.5406C20.3284 16.5125 20.8768 15.4158 21.5622 14.3191C22.1106 13.4965 22.6589 12.674 23.3443 11.8515C22.5218 12.5369 21.7678 13.2224 21.0824 13.9078C20.6026 14.3876 20.1913 14.8674 19.7801 15.3472C19.3688 15.827 18.9576 16.3754 18.6148 16.8552C18.4778 17.0608 18.3407 17.2664 18.2036 17.5406C18.2036 17.6092 17.9294 17.6092 17.7238 17.6777C17.4496 17.6777 17.244 17.6092 17.244 17.5406C17.1069 17.335 16.9698 17.0608 16.7642 16.8552C16.4215 16.3754 16.0102 15.827 15.5989 15.3472C15.1877 14.8674 14.7764 14.3876 14.2966 13.9078C13.6112 13.2224 12.8572 12.4684 12.0347 11.8515C12.7201 12.674 13.2685 13.4965 13.8168 14.3191C14.5022 15.4158 15.1191 16.5125 15.5304 17.5406C15.8046 18.089 15.736 19.1857 15.736 19.2542C15.4618 21.242 13.337 42.7646 13.337 42.7646C13.7483 42.8332 21.5622 42.8332 22.042 42.7646C22.042 42.7646 19.9172 21.242 19.643 19.2542C19.643 19.2542 19.5745 18.1575 19.8486 17.5406Z" fill="white"/>
</svg>
